Coordinates
version=1
nRows=14
nColumns=24
inDegrees=yes

Units are S.I. units (second, meters, Newtons, ...)
Angles are in degrees.

endheader
time	pelvis_tilt	pelvis_list	pelvis_rotation	pelvis_tx	pelvis_ty	pelvis_tz	hip_flexion_r	hip_adduction_r	hip_rotation_r	knee_angle_r	ankle_angle_r	subtalar_angle_r	mtp_angle_r	hip_flexion_l	hip_adduction_l	hip_rotation_l	knee_angle_l	ankle_angle_l	subtalar_angle_l	mtp_angle_l	lumbar_extension	lumbar_bending	lumbar_rotation
      0.65800000	     -0.91832646	     -1.35802595	     -1.29906827	     -0.53562117	      1.06281083	      0.34361481	     13.21936841	      5.42537971	     -4.98977997	    -16.70410970	      5.18172027	     -2.09405619	      3.46339489	     18.84061267	     -2.62223141	     -1.71333117	    -67.94709155	      5.96964703	      2.36641468	     10.09916444	      1.65626158	      5.67081700	      1.60349291
      0.66216667	     -0.90130295	     -1.33867412	     -1.31836674	     -0.53044268	      1.06352182	      0.34394428	     12.82217030	      5.42629856	     -4.92351880	    -16.56268706	      5.33984798	     -1.99289999	      3.48547769	     19.39251249	     -2.57476183	     -1.52404391	    -67.67822010	      6.37346618	      2.21945746	     10.11682678	      1.62579256	      5.58336919	      1.68369739
      0.66633333	     -0.89095949	     -1.29442032	     -1.34337039	     -0.52525063	      1.06421931	      0.34413519	     12.43762331	      5.38545683	     -4.88789819	    -16.44757334	      5.52992607	     -1.90506262	      3.50792191	     19.92640138	     -2.48263919	     -1.34471756	    -67.32426676	      6.85603575	      2.01470137	     10.13376625	      1.60141158	      5.53001845	      1.76553160
      0.67050000	     -0.87081701	     -1.25309690	     -1.37623884	     -0.52005037	      1.06492094	      0.34434041	     12.03935297	      5.35141372	     -4.84605222	    -16.32363320	      5.71505385	     -1.81111354	      3.53074227	     20.42634651	     -2.39476390	     -1.18076670	    -66.88336337	      7.29241339	      1.79660239	     10.14754543	      1.56992433	      5.48072134	      1.84913614
      0.67466667	     -0.86600281	     -1.20425633	     -1.40580453	     -0.51486432	      1.06557485	      0.34454558	     11.65532794	      5.31044089	     -4.79619522	    -16.18526358	      5.88811532	     -1.72855780	      3.55236414	     20.92527258	     -2.29775252	     -1.02483403	    -66.35925045	      7.67162765	      1.55808171	     10.15715783	      1.54458396	      5.42286154	      1.93274879
      0.67883333	     -0.85471519	     -1.16011663	     -1.43385379	     -0.50962616	      1.06623595	      0.34473696	     11.25412789	      5.27544104	     -4.73810845	    -16.04543996	      6.05017084	     -1.66503367	      3.57205962	     21.38719252	     -2.20391572	     -0.87075366	    -65.74685162	      8.00539725	      1.29687144	     10.16252793	      1.52568599	      5.36512597	      2.01239631
      0.68300000	     -0.86946350	     -1.10430420	     -1.45947230	     -0.50447821	      1.06681089	      0.34485932	     10.88905133	      5.22152057	     -4.64634914	    -15.90473873	      6.14151173	     -1.64201351	      3.58111737	     21.86749397	     -2.08860266	     -0.70528953	    -65.05678750	      8.19752305	      1.13540618	     10.16295613	      1.46451535	      5.34290535	      2.04795431
      0.68716667	     -0.83544888	     -1.06740819	     -1.47902082	     -0.49916339	      1.06748335	      0.34512698	     10.44526234	      5.20618987	     -4.60373392	    -15.72054815	      6.34067262	     -1.60489529	      3.59903515	     22.25350597	     -2.01172286	     -0.58615798	    -64.28355818	      8.57335253	      0.71744215	     10.16089183	      1.50900522	      5.23567113	      2.14532479
      0.69133333	     -0.81861520	     -1.01787010	     -1.51069732	     -0.49392957	      1.06807221	      0.34526792	     10.03027448	      5.16609082	     -4.52132996	    -15.55821103	      6.51611415	     -1.57130401	      3.61878341	     22.64161117	     -1.90767072	     -0.46425434	    -63.43604033	      8.82529688	      0.27590488	     10.15211021	      1.46637202	      5.17762249	      2.23637084
      0.69550000	     -0.86141919	     -0.98108579	     -1.52405350	     -0.48877973	      1.06850769	      0.34536381	      9.68657814	      5.13794832	     -4.42698111	    -15.39484258	      6.57969438	     -1.56886796	      3.62446872	     23.08977834	     -1.81111712	     -0.30799278	    -62.52929137	      8.93340158	      0.12468762	     10.14704843	      1.38177957	      5.18557794	      2.25685477
      0.69966667	     -0.80316030	     -0.91228684	     -1.58758037	     -0.48350830	      1.06913930	      0.34552916	      9.22448236	      5.08283862	     -4.34767703	    -15.22741087	      6.81053853	     -1.58855783	      3.65436976	     23.36926957	     -1.69738581	     -0.26309289	    -61.50799149	      9.11934892	     -0.73985418	     10.11261448	      1.30598010	      5.05118416	      2.41180306
      0.70383333	     -0.85344219	     -0.89363881	     -1.57059340	     -0.47828781	      1.06950425	      0.34561660	      8.86565734	      5.07966970	     -4.23123628	    -15.02193102	      6.85964052	     -1.59166241	      3.65900815	     23.77549232	     -1.61470196	     -0.08477140	    -60.45683017	      9.19089960	     -0.86119595	     10.10487449	      1.28934406	      5.07604786	      2.43243192
      0.70800000	     -0.78698428	     -0.82585701	     -1.62539427	     -0.47293395	      1.07010437	      0.34578333	      8.37424183	      5.03115969	     -4.12091460	    -14.81449070	      7.02785368	     -1.72191550	      3.68260696	     23.98768860	     -1.50405466	     -0.04767418	    -59.27373190	      9.22017148	     -1.71822151	     10.05338447	      1.26743019	      4.91895352	      2.57374694
      0.71216667	     -0.78375536	     -0.81812930	     -1.59945474	     -0.46761711	      1.07051355	      0.34590792	      7.93261588	      5.05061717	     -3.98401291	    -14.56130379	      7.08967199	     -1.75984922	      3.69154640	     24.27477523	     -1.43821914	      0.10195767	    -58.07023188	      9.23949625	     -1.97809693	     10.02972022	      1.34468868	      4.95545365	      2.62214673
